<?xml version="1.0" encoding="utf-8"?>
<!-- Generator: Adobe Illustrator 25.2.1, SVG Export Plug-In . SVG Version: 6.00 Build 0)  -->
<svg version="1.1" id="Camada_1" xmlns="http://www.w3.org/2000/svg" xmlns:xlink="http://www.w3.org/1999/xlink" x="0px" y="0px"
	 viewBox="0 0 1202 380.8" enable-background="new 0 0 1202 380.8" xml:space="preserve">
<text transform="matrix(1 0 0 1 933.3801 269.2318)" fill="#FFFFFF" font-family="'AvenirArabic-Heavy'" font-size="119.8059px">Mini </text>
<text transform="matrix(0.9941 0 0 1 144.9 158.0259)" fill="#FFFFFF" font-family="'AvenirArabic-Heavy'" font-size="188.5551px">Manhatthan</text>
<line fill="none" x1="439" y1="407.4" x2="438.5" y2="408.3"/>
<path fill="#FFFFFF" d="M409.9,450.5"/>
<polygon fill="#FFFFFF" points="144.9,87.1 143.3,135.5 123.3,155.8 97.2,155.8 "/>
<polygon fill="#FFFFFF" points="85,16.5 85,82.3 34.6,155.8 2.6,155.8 "/>
<polygon fill="#FFFFFF" points="85.4,85.1 85,114.5 60.7,155.8 37.6,155.8 "/>
<polygon fill="#FFFFFF" points="144.8,17.3 144.6,82.3 94.2,155.8 62.2,155.8 "/>
<polygon fill="#FFFFFF" points="143.1,137.6 142.6,155.8 125.5,155.8 "/>
<rect x="1299" y="384" fill="none" width="3" height="3"/>
</svg>
